<svg width="80" height="80" viewBox="0 0 80 80" fill="none" xmlns="http://www.w3.org/2000/svg">
<path d="M0.6194 14.7632C0.737564 14.8115 2.06569 15.3345 4.44264 15.3345C7.40016 15.3345 11.9812 14.5254 17.8762 10.9883C17.8879 10.9813 17.8994 10.975 17.9111 10.9681L8.92195 50.2817H5.91676C5.36452 50.2817 4.91676 50.7295 4.91676 51.2817V54.3398C4.91676 57.2563 7.28981 59.6294 10.2063 59.6294H29.6463C32.5628 59.6294 34.9358 57.2563 34.9358 54.3398V51.2817C34.9358 50.7295 34.4881 50.2817 33.9358 50.2817H29.7822L20.4711 9.55774C29.0802 5.18762 36.5421 5.17273 39.0003 5.31781V66.4331H30.7713C28.1423 66.4331 26.0037 68.5718 26.0037 71.2007V72.0439H24.5007C23.9485 72.0439 23.5007 72.4917 23.5007 73.0439V79C23.5007 79.5522 23.9485 80 24.5007 80H55.4998C56.052 80 56.4998 79.5522 56.4998 79V73.0439C56.4998 72.4917 56.052 72.0439 55.4998 72.0439H53.9968V71.2007C53.9968 68.5718 51.8582 66.4331 49.2293 66.4331H41.0003V5.31726C43.3642 5.17712 50.355 5.18561 58.5434 9.07257L49.1212 50.2817H46.116C45.5637 50.2817 45.116 50.7295 45.116 51.2817V54.3398C45.116 57.2563 47.489 59.6294 50.4055 59.6294H69.8455C72.762 59.6294 75.1345 57.2563 75.1345 54.3398V51.2817C75.1345 50.7295 74.6868 50.2817 74.1345 50.2817H69.9814L60.8267 10.2438C61.2573 10.4818 61.6895 10.7274 62.1243 10.9883C68.0198 14.5259 72.6004 15.3345 75.5579 15.3345C77.9343 15.334 79.263 14.8115 79.3811 14.7632C79.8894 14.5537 80.1297 13.9751 79.9241 13.4653C79.7185 12.9561 79.1384 12.709 78.6257 12.9111C78.5706 12.9346 72.8411 15.0859 63.1536 9.27344C53.0695 3.22345 44.1002 3.11969 41.0003 3.30676V1C41.0003 0.447754 40.5525 0 40.0003 0C39.448 0 39.0003 0.447754 39.0003 1V3.30707C35.9003 3.12042 26.9299 3.22406 16.8469 9.27344C7.15993 15.0859 1.43092 12.9331 1.38112 12.9136C0.871354 12.7051 0.286393 12.9468 0.0754551 13.4575C-0.134506 13.9683 0.108658 14.5527 0.6194 14.7632ZM32.9358 54.3398C32.9358 56.1538 31.4602 57.6294 29.6463 57.6294H10.2063C8.39235 57.6294 6.91676 56.1538 6.91676 54.3398V52.2817H32.9358V54.3398ZM10.9731 50.2817L19.3523 13.6367L27.7312 50.2817H10.9731ZM54.4998 78H25.5007V74.0439H54.4998V78ZM51.9968 71.2007V72.0439H28.0037V71.2007C28.0037 69.6748 29.2454 68.4331 30.7713 68.4331H49.2293C50.7551 68.4331 51.9968 69.6748 51.9968 71.2007ZM73.1345 54.3398C73.1345 56.1538 71.659 57.6294 69.8455 57.6294H50.4055C48.5916 57.6294 47.116 56.1538 47.116 54.3398V52.2817H73.1345V54.3398ZM51.1723 50.2817L59.551 13.6367L67.9303 50.2817H51.1723Z" fill="white"/>
</svg>
